<?xml version="1.0" encoding="UTF-8" standalone="no"?>
<!-- Created with Inkscape (http://www.inkscape.org/) -->

<svg
   width="210mm"
   height="297mm"
   viewBox="0 0 210 297"
   version="1.1"
   id="svg5"
   inkscape:export-filename="C:\Users\hjalt\Desktop\coollogo.png"
   inkscape:export-xdpi="96"
   inkscape:export-ydpi="96"
   inkscape:version="1.1.2 (b8e25be833, 2022-02-05)"
   sodipodi:docname="coollogo2.svg"
   xmlns:inkscape="http://www.inkscape.org/namespaces/inkscape"
   xmlns:sodipodi="http://sodipodi.sourceforge.net/DTD/sodipodi-0.dtd"
   xmlns="http://www.w3.org/2000/svg"
   xmlns:svg="http://www.w3.org/2000/svg">
  <sodipodi:namedview
     id="namedview7"
     pagecolor="#ffffff"
     bordercolor="#666666"
     borderopacity="1.0"
     inkscape:pageshadow="2"
     inkscape:pageopacity="0.0"
     inkscape:pagecheckerboard="0"
     inkscape:document-units="mm"
     showgrid="false"
     inkscape:zoom="0.25449098"
     inkscape:cx="508.09512"
     inkscape:cy="574.15564"
     inkscape:window-width="1920"
     inkscape:window-height="1001"
     inkscape:window-x="-9"
     inkscape:window-y="-9"
     inkscape:window-maximized="1"
     inkscape:current-layer="layer1" />
  <defs
     id="defs2">
    <inkscape:path-effect
       effect="bend_path"
       id="path-effect2449"
       is_visible="true"
       lpeversion="1"
       bendpath="m 117.69648,64.240212 c 57.2102,-5.965563 33.2501,-50.525508 33.2501,-50.525508"
       prop_scale="1"
       scale_y_rel="false"
       vertical="false"
       hide_knot="false" />
    <inkscape:path-effect
       effect="bend_path"
       id="path-effect2398"
       is_visible="true"
       lpeversion="1"
       bendpath="m 130.36777,77.561249 c 46.72959,-42.923717 -12.99431,-54.90441 -12.99431,-54.90441 l 59.98505,11.72202 z"
       prop_scale="1"
       scale_y_rel="false"
       vertical="false"
       hide_knot="false" />
  </defs>
  <g
     inkscape:label="Layer 1"
     inkscape:groupmode="layer"
     id="layer1">
    <text
       xml:space="preserve"
       style="font-style:normal;font-variant:normal;font-weight:normal;font-stretch:normal;font-size:10.5833px;line-height:1.25;font-family:bungee;-inkscape-font-specification:bungee;fill:#ffffff;fill-opacity:1;stroke:none;stroke-width:0.264583"
       x="37.031124"
       y="137.93246"
       id="text5247"><tspan
         sodipodi:role="line"
         id="tspan5245"
         style="font-style:normal;font-variant:normal;font-weight:normal;font-stretch:normal;font-family:bungee;-inkscape-font-specification:bungee;fill:#ffffff;stroke-width:0.264583"
         x="37.031124"
         y="137.93246" /></text>
    <text
       xml:space="preserve"
       style="font-style:normal;font-variant:normal;font-weight:bold;font-stretch:normal;font-size:10.5833px;line-height:1.25;font-family:Arial;-inkscape-font-specification:'Arial, Bold';font-variant-ligatures:normal;font-variant-caps:normal;font-variant-numeric:normal;font-variant-east-asian:normal;fill:#ff0000;fill-opacity:1;stroke:none;stroke-width:0.264583"
       x="28.481266"
       y="186.75618"
       id="text31115"><tspan
         sodipodi:role="line"
         id="tspan31113"
         style="font-style:normal;font-variant:normal;font-weight:bold;font-stretch:normal;font-size:10.5833px;font-family:Arial;-inkscape-font-specification:'Arial, Bold';font-variant-ligatures:normal;font-variant-caps:normal;font-variant-numeric:normal;font-variant-east-asian:normal;fill:#ff0000;stroke-width:0.264583"
         x="28.481266"
         y="186.75618" /></text>
    <g
       id="g3508"
       style="fill:#ff0000;fill-opacity:1"
       transform="matrix(0,-0.35343069,0.35343069,0,-8.8748807,90.001458)">
      <rect
         style="fill:#ff0000;fill-opacity:1;stroke:none;stroke-width:0.264583"
         id="rect934"
         width="163.57054"
         height="34.184402"
         x="22.054455"
         y="122"
         ry="17.092201" />
      <rect
         style="fill:#ff0000;fill-opacity:1;stroke:none;stroke-width:0.238307"
         id="rect934-3"
         width="132.69431"
         height="34.184402"
         x="37.492573"
         y="83"
         ry="17.092201" />
      <rect
         style="fill:#ff0000;fill-opacity:1;stroke:none;stroke-width:0.191923"
         id="rect934-3-3"
         width="86.065727"
         height="34.184402"
         x="60.806862"
         y="44"
         ry="17.092201"
         rx="0" />
    </g>
    <g
       aria-label="For the small
mistakes"
       transform="rotate(-90)"
       id="text11275"
       style="font-size:4.26951px;line-height:1.25;font-family:Stencil;-inkscape-font-specification:'Stencil, Normal';fill:#ffffff;stroke-width:0.106738">
      <path
         d="m -75.742034,36.180303 v 2.449547 q 0,0.08131 0.03127,0.116745 0.01668,0.02085 0.03127,0.0271 0.01459,0.0042 0.0959,0.02502 0.100067,0.02293 0.100067,0.11466 0,0.0542 -0.0542,0.08756 -0.03961,0.02502 -0.131338,0.02502 h -0.07088 -0.929786 -0.0542 q -0.07505,0 -0.116744,-0.0271 -0.03961,-0.02919 -0.03961,-0.0813 0,-0.08547 0.08339,-0.112575 0.0688,-0.02293 0.07922,-0.0271 0.01251,-0.0063 0.02502,-0.02502 0.02502,-0.03336 0.02502,-0.106321 v -2.086806 q 0,-0.07297 -0.02502,-0.106321 -0.01251,-0.01876 -0.02502,-0.02293 -0.01042,-0.0063 -0.07922,-0.02919 -0.08339,-0.0271 -0.08339,-0.112575 0,-0.05212 0.03961,-0.07922 0.04169,-0.02919 0.116744,-0.02919 h 0.0542 z m 0.183456,0 h 0.840142 v 0.727567 q 0,0.07088 -0.02502,0.102152 -0.02502,0.03127 -0.0813,0.03127 -0.0417,0 -0.06671,-0.02085 -0.02293,-0.02293 -0.03961,-0.07505 -0.03127,-0.102151 -0.0813,-0.187625 -0.05003,-0.08547 -0.112575,-0.14593 -0.08547,-0.08339 -0.187625,-0.127168 -0.102152,-0.04378 -0.245997,-0.06046 z m -0.01042,1.517677 v -0.241828 q 0.122999,-0.05837 0.179286,-0.125083 0.05837,-0.0688 0.08547,-0.18554 0.01668,-0.07922 0.04378,-0.108406 0.0271,-0.03127 0.07713,-0.03127 0.06671,0 0.09173,0.05212 0.01459,0.0271 0.01459,0.122999 v 0.794279 q 0,0.09798 -0.02293,0.135507 -0.02085,0.03753 -0.07922,0.03753 -0.04795,0 -0.07505,-0.02919 -0.0271,-0.02919 -0.04378,-0.09798 -0.03753,-0.143846 -0.102152,-0.220981 -0.06463,-0.07713 -0.168862,-0.102151 z"
         id="path42824" />
      <path
         d="m -73.365451,36.349165 q -0.106321,0.03753 -0.1501,0.102151 -0.04378,0.06463 -0.04378,0.18971 v 1.863741 q 0,0.183456 0.05003,0.258506 0.03961,0.06254 0.143846,0.08964 v 0.229319 q -0.462808,-0.03752 -0.775517,-0.348148 -0.40652,-0.404436 -0.40652,-1.127835 0,-0.362741 0.10632,-0.654602 0.108406,-0.293946 0.318963,-0.498249 0.160523,-0.156354 0.346064,-0.237658 0.18554,-0.0813 0.41069,-0.09173 z m 0.170947,0 v -0.22515 q 0.22515,0.01042 0.41069,0.09173 0.187625,0.0813 0.348149,0.237658 0.425283,0.41486 0.425283,1.152851 0,0.723399 -0.406521,1.127835 -0.312708,0.312708 -0.777601,0.348148 v -0.229319 q 0.0542,-0.01251 0.08339,-0.03127 0.03127,-0.02085 0.05629,-0.05837 0.05629,-0.08547 0.05629,-0.258506 v -1.863741 q 0,-0.11049 -0.03752,-0.175117 -0.02502,-0.04378 -0.06046,-0.0688 -0.03336,-0.02502 -0.09798,-0.04795 z"
         id="path42826" />
      <path
         d="m -70.615703,36.180303 v 2.449547 q 0,0.08131 0.03127,0.116745 0.01668,0.02085 0.03127,0.0271 0.01459,0.0042 0.0959,0.02502 0.100067,0.02293 0.100067,0.11466 0,0.0542 -0.0542,0.08756 -0.03961,0.02502 -0.131337,0.02502 h -0.07088 -0.929786 -0.0542 q -0.07505,0 -0.116745,-0.0271 -0.03961,-0.02919 -0.03961,-0.0813 0,-0.08547 0.08339,-0.112575 0.0688,-0.02293 0.07922,-0.0271 0.01251,-0.0063 0.02502,-0.02502 0.02502,-0.03336 0.02502,-0.106321 v -2.086806 q 0,-0.07297 -0.02502,-0.106321 -0.01251,-0.01876 -0.02502,-0.02293 -0.01042,-0.0063 -0.07922,-0.02919 -0.08339,-0.0271 -0.08339,-0.112575 0,-0.05212 0.03961,-0.07922 0.0417,-0.02919 0.116745,-0.02919 h 0.0542 z m 0.640009,1.450966 q 0.191794,0.02919 0.293946,0.06463 0.104236,0.03544 0.187625,0.0959 0.08756,0.06463 0.133422,0.15427 0.04795,0.08964 0.04795,0.189709 v 0.431538 q 0,0.06671 0.04378,0.06671 0.01668,0 0.0271,-0.0083 0.01251,-0.01042 0.03336,-0.03753 0.05212,-0.07088 0.10632,-0.07088 0.03544,0 0.07088,0.03752 0.03544,0.03753 0.03544,0.07505 0,0.06463 -0.06254,0.158439 -0.06046,0.09173 -0.152185,0.164693 -0.08547,0.0688 -0.18554,0.09798 -0.100067,0.03127 -0.235574,0.03127 -0.275183,0 -0.429453,-0.156354 -0.154269,-0.158439 -0.154269,-0.439876 v -0.350234 q 0,-0.116744 -0.0021,-0.135506 -0.01042,-0.08339 -0.05837,-0.143846 -0.06046,-0.07297 -0.173032,-0.08547 V 37.54788 q 0.112575,-0.01668 0.160524,-0.05837 0.04169,-0.03753 0.05629,-0.08547 0.01668,-0.04795 0.01668,-0.141761 v -0.552451 q 0,-0.131338 -0.05212,-0.195964 -0.05003,-0.06463 -0.183455,-0.102151 v -0.231404 h 0.0542 q 0.231404,0 0.394013,0.01668 0.241827,0.02293 0.431537,0.158439 0.273099,0.193879 0.273099,0.552451 0,0.293946 -0.183456,0.481571 -0.07713,0.07922 -0.181371,0.129253 -0.102151,0.05003 -0.312708,0.112575 z"
         id="path42828" />
      <path
         d="m -66.143975,36.180303 v 2.449547 q 0,0.08131 0.03127,0.116745 0.01668,0.02085 0.03127,0.0271 0.01459,0.0042 0.0959,0.02502 0.100067,0.02293 0.100067,0.11466 0,0.0542 -0.0542,0.08756 -0.03961,0.02502 -0.133422,0.02502 h -0.0688 -0.929785 -0.0688 q -0.09173,0 -0.139677,-0.0271 -0.04586,-0.02919 -0.04586,-0.08547 0,-0.09173 0.100066,-0.11466 0.0813,-0.02085 0.0959,-0.02502 0.01459,-0.0063 0.02919,-0.0271 0.03127,-0.03544 0.03127,-0.116745 v -2.449547 z m 0.721313,0 v 0.852651 q 0,0.06046 -0.03544,0.09798 -0.03336,0.03753 -0.08756,0.03753 -0.05212,0 -0.08756,-0.03336 -0.03336,-0.03544 -0.04378,-0.0959 l -0.02085,-0.127168 q -0.03127,-0.193879 -0.120914,-0.33564 -0.05629,-0.08756 -0.152184,-0.143846 v -0.252251 z m -2.364074,0 h 0.548282 v 0.252251 q -0.09798,0.05629 -0.152185,0.143846 -0.08964,0.141761 -0.120914,0.33564 l -0.02085,0.127168 q -0.01042,0.06046 -0.04586,0.0959 -0.03336,0.03336 -0.08547,0.03336 -0.0542,0 -0.08964,-0.03753 -0.03336,-0.03752 -0.03336,-0.09798 z"
         id="path42830" />
      <path
         d="m -63.807003,37.468661 h 0.33981 v -0.908939 q 0,-0.116744 -0.06046,-0.137592 l -0.06671,-0.02085 q -0.07922,-0.02502 -0.07922,-0.112575 0,-0.108405 0.1501,-0.108405 h 0.0542 0.927701 0.05629 q 0.156355,0 0.156355,0.108405 0,0.08547 -0.08339,0.112575 -0.0688,0.02293 -0.0813,0.02919 -0.01042,0.0042 -0.02293,0.02293 -0.02502,0.03336 -0.02502,0.106321 v 2.078467 q 0,0.11466 0.06254,0.139677 l 0.06671,0.02293 q 0.08339,0.0271 0.08339,0.114659 0,0.110491 -0.156355,0.110491 h -0.05629 -0.927701 -0.05837 q -0.145931,0 -0.145931,-0.110491 0,-0.08756 0.07922,-0.114659 l 0.06671,-0.02293 q 0.06046,-0.01876 0.06046,-0.139677 v -0.963141 h -0.33981 z m -0.175117,1.557287 h -0.929786 -0.0542 q -0.07505,0 -0.116745,-0.0271 -0.03961,-0.02919 -0.03961,-0.0813 0,-0.08547 0.08339,-0.112575 0.0688,-0.02293 0.07922,-0.0271 0.01251,-0.0063 0.02502,-0.02502 0.02502,-0.03336 0.02502,-0.106321 v -2.086806 q 0,-0.07297 -0.02502,-0.106321 -0.01251,-0.01876 -0.02502,-0.02293 -0.01042,-0.0063 -0.07922,-0.02919 -0.08339,-0.0271 -0.08339,-0.112575 0,-0.05212 0.03961,-0.07922 0.0417,-0.02919 0.116745,-0.02919 h 0.0542 0.929786 0.0542 q 0.148015,0 0.148015,0.108405 0,0.08756 -0.07922,0.112575 l -0.06463,0.02085 q -0.06046,0.02085 -0.06046,0.137592 v 2.086806 q 0,0.116745 0.06046,0.137592 l 0.06463,0.02085 q 0.07922,0.02502 0.07922,0.112575 0,0.108406 -0.148015,0.108406 z"
         id="path42832" />
      <path
         d="m -60.805004,36.180303 v 2.845645 h -0.927701 -0.0542 q -0.07505,0 -0.116744,-0.0271 -0.03961,-0.02919 -0.03961,-0.0813 0,-0.08547 0.08339,-0.112575 0.0688,-0.02293 0.07922,-0.0271 0.01251,-0.0063 0.02502,-0.02502 0.02502,-0.03336 0.02502,-0.106321 v -2.086806 q 0,-0.07297 -0.02502,-0.106321 -0.01251,-0.01876 -0.02502,-0.02293 -0.01042,-0.0063 -0.07922,-0.02919 -0.08339,-0.0271 -0.08339,-0.112575 0,-0.05212 0.03961,-0.07922 0.04169,-0.02919 0.116744,-0.02919 h 0.0542 z m 0.18554,0 h 0.840143 v 0.737991 q 0,0.06463 -0.02502,0.09381 -0.02502,0.02919 -0.07922,0.02919 -0.04586,0 -0.06671,-0.01876 -0.02085,-0.01876 -0.03961,-0.07714 -0.07922,-0.241827 -0.233489,-0.368995 -0.152184,-0.127168 -0.396097,-0.152185 z m -0.01042,1.517677 v -0.241828 q 0.120913,-0.05837 0.179286,-0.127168 0.05837,-0.0688 0.08547,-0.183455 0.01668,-0.07922 0.04378,-0.108406 0.0271,-0.03127 0.07713,-0.03127 0.06671,0 0.09173,0.05212 0.01459,0.0271 0.01459,0.122999 v 0.794279 q 0,0.09798 -0.02293,0.135507 -0.02085,0.03753 -0.07922,0.03753 -0.04795,0 -0.07505,-0.02919 -0.0271,-0.02919 -0.04378,-0.09798 -0.03544,-0.143846 -0.102151,-0.220981 -0.06463,-0.07713 -0.168862,-0.102151 z m 0.01251,1.327968 v -0.22515 q 0.135507,-0.02085 0.223065,-0.05837 0.08964,-0.03752 0.179286,-0.114659 0.08964,-0.07713 0.141761,-0.158439 0.0542,-0.08339 0.102152,-0.218896 0.02293,-0.06671 0.04795,-0.08964 0.02502,-0.02502 0.0688,-0.02502 0.05837,0 0.0813,0.03544 0.02293,0.03336 0.02293,0.118829 v 0.735907 z"
         id="path42834" />
      <path
         d="m -57.408993,36.124015 v 0.239743 q -0.129252,0.03544 -0.198048,0.11049 -0.06671,0.07297 -0.06671,0.181371 0,0.104236 0.05629,0.183456 0.05629,0.07713 0.183456,0.148015 0.08756,0.04795 0.396097,0.183455 0.187625,0.08131 0.289776,0.148016 0.104236,0.06463 0.195964,0.162608 0.245997,0.258505 0.245997,0.614993 0,0.268929 -0.133422,0.491994 -0.133422,0.223065 -0.366911,0.350233 -0.125083,0.06671 -0.275183,0.104236 -0.148016,0.03961 -0.277268,0.03961 v -0.237658 q 0.18137,-0.04378 0.26059,-0.120914 0.0813,-0.07922 0.0813,-0.212642 0,-0.139676 -0.125083,-0.245997 -0.08339,-0.0688 -0.316878,-0.170947 -0.256421,-0.112575 -0.352318,-0.160524 -0.09381,-0.04795 -0.181371,-0.112575 -0.391927,-0.279352 -0.391927,-0.744245 0,-0.237658 0.09798,-0.437792 0.09798,-0.202218 0.273099,-0.325216 0.243912,-0.170947 0.604569,-0.18971 z m 0.164693,0.239743 v -0.229319 q 0.125084,0.0083 0.216811,0.03336 0.09173,0.02293 0.260591,0.09381 0.04169,0.01668 0.06879,0.01668 0.03961,0 0.05837,-0.0271 l 0.04586,-0.06046 q 0.03336,-0.04586 0.08131,-0.04586 0.05629,0 0.0813,0.04169 0.0271,0.03961 0.0271,0.127168 v 0.687958 q 0,0.06046 -0.03544,0.100067 -0.03336,0.03752 -0.08756,0.03752 -0.04169,0 -0.07713,-0.0271 -0.01876,-0.01668 -0.03127,-0.03961 -0.01042,-0.02502 -0.02085,-0.0813 -0.02293,-0.102151 -0.07922,-0.210557 -0.05629,-0.108405 -0.131337,-0.193879 -0.1501,-0.168862 -0.377335,-0.223065 z m -0.273098,2.480819 v 0.237658 q -0.170947,0 -0.377335,-0.09798 -0.07713,-0.03544 -0.106321,-0.04586 -0.02919,-0.01042 -0.05629,-0.01042 -0.04169,0 -0.06254,0.01459 -0.02085,0.01251 -0.06671,0.06671 -0.03753,0.04586 -0.0813,0.04586 -0.116744,0 -0.116744,-0.179286 V 38.11701 q 0,-0.05837 0.03336,-0.09798 0.03336,-0.04169 0.08339,-0.04378 0.04586,-0.0021 0.07088,0.0271 0.0271,0.0271 0.04586,0.09798 0.04795,0.179286 0.137592,0.33564 0.09173,0.156354 0.212642,0.26476 0.122998,0.112575 0.283522,0.143846 z"
         id="path42836" />
      <path
         d="m -54.115132,36.180303 h 0.925616 0.05629 q 0.156354,0 0.156354,0.108405 0,0.08547 -0.08339,0.112575 -0.0688,0.02293 -0.0813,0.02919 -0.01042,0.0042 -0.02293,0.02293 -0.02502,0.03336 -0.02502,0.106321 v 2.086806 q 0,0.07296 0.02502,0.106321 0.01251,0.01876 0.02293,0.02502 0.01251,0.0042 0.0813,0.0271 0.08339,0.0271 0.08339,0.112575 0,0.108406 -0.156354,0.108406 h -0.05629 -0.927701 -0.0688 q -0.09173,0 -0.139676,-0.0271 -0.04586,-0.02919 -0.04586,-0.08547 0,-0.09173 0.100067,-0.11466 0.0813,-0.02085 0.0959,-0.02502 0.01459,-0.0063 0.02919,-0.02502 0.03127,-0.03753 0.03127,-0.11883 z m -0.767178,0 0.410691,1.169528 0.18137,-0.63167 v 0.692127 l -0.48157,1.61566 h -0.110491 l -0.808872,-2.399515 q -0.04169,-0.120914 -0.08756,-0.162608 -0.0271,-0.0271 -0.09381,-0.03961 -0.135507,-0.02919 -0.135507,-0.129253 0,-0.0542 0.03753,-0.08339 0.03961,-0.03127 0.112575,-0.03127 z m -0.808872,0.958972 0.220981,0.629585 v 0.627502 q 0,0.0959 0.0063,0.137591 0.0083,0.0417 0.03336,0.09173 0.04378,0.09173 0.120913,0.137592 l 0.07713,0.05003 q 0.07922,0.04795 0.07922,0.106321 0,0.106321 -0.156355,0.106321 h -0.523265 q -0.156354,0 -0.156354,-0.104237 0,-0.03336 0.01251,-0.05003 0.01459,-0.01876 0.0542,-0.04169 0.231404,-0.125084 0.231404,-0.433622 z"
         id="path42838" />
      <path
         d="m -51.799007,36.180303 h 0.840143 l 0.579553,2.449547 q 0.01668,0.06463 0.03753,0.11466 0.01876,0.03961 0.08339,0.06463 0.0542,0.02293 0.07505,0.04586 0.02085,0.02293 0.02085,0.06254 0,0.108406 -0.162609,0.108406 h -1.040276 q -0.06254,0 -0.100066,-0.02919 -0.03752,-0.03127 -0.03752,-0.0813 0,-0.04169 0.01668,-0.06254 0.01668,-0.02085 0.07505,-0.05212 0.04169,-0.02085 0.05837,-0.04586 0.01668,-0.02502 0.01668,-0.06254 0,-0.03544 -0.0063,-0.06254 l -0.06671,-0.302284 h -0.581637 l 0.05629,-0.248082 h 0.466978 l -0.383589,-1.694879 z m -0.143846,0.529519 0.106321,0.431537 -0.368995,1.34673 q -0.01668,0.05837 -0.01668,0.108406 0,0.131337 0.122998,0.187625 l 0.07297,0.03336 q 0.0688,0.03127 0.0688,0.104236 0,0.104237 -0.152184,0.104237 h -0.52952 q -0.07713,0 -0.122998,-0.03127 -0.04378,-0.03336 -0.04378,-0.08964 0,-0.06046 0.09173,-0.100067 0.08547,-0.03752 0.125084,-0.06671 0.04169,-0.03127 0.07922,-0.08339 0.05837,-0.08547 0.0959,-0.227235 z"
         id="path42840" />
      <path
         d="m -48.853295,39.025948 h -0.927701 -0.0542 q -0.07505,0 -0.116745,-0.0271 -0.03961,-0.02919 -0.03961,-0.0813 0,-0.08547 0.08339,-0.112575 0.0688,-0.02293 0.07922,-0.0271 0.01251,-0.0063 0.02502,-0.02502 0.02502,-0.03336 0.02502,-0.106321 v -2.086806 q 0,-0.07297 -0.02502,-0.106321 -0.01251,-0.01876 -0.02502,-0.02293 -0.01042,-0.0063 -0.07922,-0.02919 -0.08339,-0.0271 -0.08339,-0.112575 0,-0.05212 0.03961,-0.07922 0.04169,-0.02919 0.116745,-0.02919 h 0.0542 0.929785 0.07088 q 0.09173,0 0.131337,0.02502 0.0542,0.03336 0.0542,0.08756 0,0.09173 -0.100066,0.114659 -0.08131,0.01876 -0.0959,0.02502 -0.01459,0.0063 -0.03127,0.02502 -0.03127,0.03752 -0.03127,0.116744 z m 0.168862,0 v -0.233489 q 0.102152,-0.01876 0.160524,-0.0417 0.06046,-0.02293 0.114659,-0.06671 0.08756,-0.0688 0.160524,-0.189709 0.07296,-0.120914 0.118829,-0.26893 0.03336,-0.114659 0.06046,-0.150099 0.02919,-0.03753 0.08339,-0.03753 0.05837,0 0.08547,0.04795 0.01251,0.02293 0.01251,0.09173 v 0.848482 z"
         id="path42842" />
      <path
         d="m -46.578864,39.025948 h -0.927701 -0.0542 q -0.07505,0 -0.116744,-0.0271 -0.03961,-0.02919 -0.03961,-0.0813 0,-0.08547 0.08339,-0.112575 0.0688,-0.02293 0.07922,-0.0271 0.01251,-0.0063 0.02502,-0.02502 0.02502,-0.03336 0.02502,-0.106321 v -2.086806 q 0,-0.07297 -0.02502,-0.106321 -0.01251,-0.01876 -0.02502,-0.02293 -0.01042,-0.0063 -0.07922,-0.02919 -0.08339,-0.0271 -0.08339,-0.112575 0,-0.05212 0.03961,-0.07922 0.04169,-0.02919 0.116744,-0.02919 h 0.0542 0.929786 0.07088 q 0.09173,0 0.131338,0.02502 0.0542,0.03336 0.0542,0.08756 0,0.09173 -0.100066,0.114659 -0.0813,0.01876 -0.0959,0.02502 -0.01459,0.0063 -0.03127,0.02502 -0.03127,0.03752 -0.03127,0.116744 z m 0.168862,0 v -0.233489 q 0.102152,-0.01876 0.160524,-0.0417 0.06046,-0.02293 0.11466,-0.06671 0.08756,-0.0688 0.160523,-0.189709 0.07297,-0.120914 0.118829,-0.26893 0.03336,-0.114659 0.06046,-0.150099 0.02919,-0.03753 0.08339,-0.03753 0.05837,0 0.08547,0.04795 0.01251,0.02293 0.01251,0.09173 v 0.848482 z"
         id="path42844" />
      <path
         d="m -75.016551,41.51719 h 0.925617 0.05629 q 0.156354,0 0.156354,0.108405 0,0.08547 -0.08339,0.112575 -0.0688,0.02293 -0.0813,0.02919 -0.01042,0.0042 -0.02293,0.02293 -0.02502,0.03336 -0.02502,0.106321 v 2.086806 q 0,0.07297 0.02502,0.106321 0.01251,0.01876 0.02293,0.02502 0.01251,0.0042 0.0813,0.0271 0.08339,0.0271 0.08339,0.112575 0,0.108406 -0.156354,0.108406 h -0.05629 -0.927701 -0.0688 q -0.09173,0 -0.139677,-0.0271 -0.04586,-0.02919 -0.04586,-0.08547 0,-0.09173 0.100067,-0.11466 0.0813,-0.02085 0.0959,-0.02502 0.01459,-0.0063 0.02919,-0.02502 0.03127,-0.03752 0.03127,-0.118829 z m -0.767177,0 0.41069,1.169529 0.181371,-0.631671 v 0.692128 l -0.481571,1.615659 h -0.11049 L -76.5926,41.96332 q -0.04169,-0.120914 -0.08756,-0.162608 -0.0271,-0.0271 -0.09381,-0.03961 -0.135507,-0.02919 -0.135507,-0.129252 0,-0.0542 0.03752,-0.08339 0.03961,-0.03127 0.112575,-0.03127 z m -0.808872,0.958972 0.22098,0.629586 v 0.627501 q 0,0.0959 0.0063,0.137592 0.0083,0.04169 0.03336,0.09173 0.04378,0.09173 0.120914,0.137592 l 0.07713,0.05003 q 0.07922,0.04795 0.07922,0.106321 0,0.106321 -0.156354,0.106321 h -0.523265 q -0.156354,0 -0.156354,-0.104236 0,-0.03336 0.01251,-0.05003 0.01459,-0.01876 0.0542,-0.04169 0.231404,-0.125083 0.231404,-0.433622 z"
         id="path42846" />
      <path
         d="m -72.396056,44.362835 h -0.929785 -0.0542 q -0.07505,0 -0.116745,-0.0271 -0.03961,-0.02919 -0.03961,-0.0813 0,-0.08547 0.08339,-0.112575 0.06879,-0.02293 0.07922,-0.0271 0.01251,-0.0063 0.02502,-0.02502 0.02502,-0.03336 0.02502,-0.106321 v -2.086806 q 0,-0.07296 -0.02502,-0.106321 -0.01251,-0.01876 -0.02502,-0.02293 -0.01042,-0.0063 -0.07922,-0.02919 -0.08339,-0.0271 -0.08339,-0.112575 0,-0.05212 0.03961,-0.07922 0.0417,-0.02919 0.116745,-0.02919 h 0.0542 0.929785 0.0542 q 0.07505,0 0.11466,0.02919 0.04169,0.0271 0.04169,0.07922 0,0.08547 -0.08339,0.112575 -0.06879,0.02293 -0.0813,0.02919 -0.01042,0.0042 -0.02293,0.02293 -0.02502,0.03336 -0.02502,0.106321 v 2.086806 q 0,0.07297 0.02502,0.106321 0.01251,0.01876 0.02293,0.02502 0.01251,0.0042 0.0813,0.0271 0.08339,0.0271 0.08339,0.112575 0,0.05212 -0.04169,0.0813 -0.03961,0.0271 -0.11466,0.0271 z"
         id="path42848" />
      <path
         d="m -70.882548,41.460902 v 0.239743 q -0.129253,0.03544 -0.198048,0.110491 -0.06671,0.07297 -0.06671,0.18137 0,0.104236 0.05629,0.183456 0.05629,0.07713 0.183456,0.148015 0.08756,0.04795 0.396097,0.183456 0.187625,0.0813 0.289776,0.148015 0.104236,0.06463 0.195964,0.162608 0.245997,0.258506 0.245997,0.614993 0,0.268929 -0.133422,0.491994 -0.133422,0.223065 -0.366911,0.350234 -0.125084,0.06671 -0.275184,0.104236 -0.148015,0.03961 -0.277268,0.03961 v -0.237658 q 0.181371,-0.04378 0.260591,-0.120914 0.0813,-0.07922 0.0813,-0.212641 0,-0.139677 -0.125083,-0.245998 -0.08339,-0.0688 -0.316878,-0.170947 -0.256421,-0.112575 -0.352318,-0.160523 -0.09381,-0.04795 -0.181371,-0.112575 -0.391928,-0.279353 -0.391928,-0.744246 0,-0.237658 0.09798,-0.437791 0.09798,-0.202218 0.273099,-0.325217 0.243912,-0.170947 0.604569,-0.18971 z m 0.164693,0.239743 v -0.229319 q 0.125083,0.0083 0.216811,0.03336 0.09173,0.02293 0.26059,0.09381 0.0417,0.01668 0.0688,0.01668 0.03961,0 0.05837,-0.0271 l 0.04586,-0.06046 q 0.03336,-0.04586 0.0813,-0.04586 0.05629,0 0.08131,0.04169 0.0271,0.03961 0.0271,0.127168 v 0.687958 q 0,0.06046 -0.03544,0.100067 -0.03336,0.03753 -0.08756,0.03753 -0.04169,0 -0.07713,-0.0271 -0.01876,-0.01668 -0.03127,-0.03961 -0.01042,-0.02502 -0.02085,-0.0813 -0.02293,-0.102152 -0.07922,-0.210557 -0.05629,-0.108406 -0.131337,-0.193879 -0.1501,-0.168863 -0.377335,-0.223066 z m -0.273098,2.480819 v 0.237658 q -0.170948,0 -0.377335,-0.09798 -0.07713,-0.03544 -0.106321,-0.04586 -0.02919,-0.01042 -0.05629,-0.01042 -0.0417,0 -0.06254,0.01459 -0.02085,0.01251 -0.06671,0.06671 -0.03753,0.04586 -0.0813,0.04586 -0.116745,0 -0.116745,-0.179286 v -0.758839 q 0,-0.05837 0.03336,-0.09798 0.03336,-0.04169 0.08339,-0.04378 0.04586,-0.0021 0.07088,0.0271 0.0271,0.0271 0.04586,0.09798 0.04795,0.179286 0.137592,0.335641 0.09173,0.156354 0.212642,0.264759 0.122998,0.112575 0.283522,0.143846 z"
         id="path42850" />
      <path
         d="m -67.895142,41.51719 v 2.449548 q 0,0.0813 0.03127,0.116744 0.01668,0.02085 0.03127,0.0271 0.01459,0.0042 0.0959,0.02502 0.100067,0.02293 0.100067,0.11466 0,0.0542 -0.0542,0.08756 -0.03961,0.02502 -0.133422,0.02502 h -0.0688 -0.929786 -0.0688 q -0.09173,0 -0.139676,-0.0271 -0.04586,-0.02919 -0.04586,-0.08547 0,-0.09173 0.100067,-0.11466 0.0813,-0.02085 0.0959,-0.02502 0.01459,-0.0063 0.02919,-0.0271 0.03127,-0.03544 0.03127,-0.116744 V 41.51719 Z m 0.721314,0 v 0.852651 q 0,0.06046 -0.03544,0.09798 -0.03336,0.03752 -0.08756,0.03752 -0.05212,0 -0.08756,-0.03336 -0.03336,-0.03544 -0.04378,-0.0959 l -0.02085,-0.127168 q -0.03127,-0.193879 -0.120914,-0.33564 -0.05629,-0.08756 -0.152185,-0.143846 V 41.51719 Z m -2.364074,0 h 0.548281 v 0.252251 q -0.09798,0.05629 -0.152184,0.143846 -0.08964,0.141761 -0.120914,0.33564 l -0.02085,0.127168 q -0.01042,0.06046 -0.04586,0.0959 -0.03336,0.03336 -0.08547,0.03336 -0.0542,0 -0.08964,-0.03752 -0.03336,-0.03753 -0.03336,-0.09798 z"
         id="path42852" />
      <path
         d="m -66.081434,41.51719 h 0.840143 l 0.579553,2.449548 q 0.01668,0.06463 0.03753,0.114659 0.01876,0.03961 0.08339,0.06463 0.0542,0.02293 0.07505,0.04586 0.02085,0.02293 0.02085,0.06254 0,0.108406 -0.162608,0.108406 h -1.040277 q -0.06254,0 -0.100066,-0.02919 -0.03753,-0.03127 -0.03753,-0.0813 0,-0.04169 0.01668,-0.06254 0.01668,-0.02085 0.07505,-0.05212 0.04169,-0.02085 0.05837,-0.04586 0.01668,-0.02502 0.01668,-0.06254 0,-0.03544 -0.0063,-0.06254 l -0.06671,-0.302285 h -0.581637 l 0.05629,-0.248082 h 0.466977 l -0.383589,-1.694878 z m -0.143845,0.529519 0.10632,0.431538 -0.368995,1.34673 q -0.01668,0.05837 -0.01668,0.108405 0,0.131338 0.122999,0.187625 l 0.07296,0.03336 q 0.0688,0.03127 0.0688,0.104236 0,0.104236 -0.152185,0.104236 h -0.529519 q -0.07713,0 -0.122999,-0.03127 -0.04378,-0.03336 -0.04378,-0.08964 0,-0.06046 0.09173,-0.100067 0.08547,-0.03753 0.125083,-0.06671 0.04169,-0.03127 0.07922,-0.08339 0.05837,-0.08547 0.0959,-0.227234 z"
         id="path42854" />
      <path
         d="m -63.089858,44.362835 h -0.929786 -0.0542 q -0.07505,0 -0.116744,-0.0271 -0.03961,-0.02919 -0.03961,-0.0813 0,-0.08547 0.08339,-0.112575 0.0688,-0.02293 0.07922,-0.0271 0.01251,-0.0063 0.02502,-0.02502 0.02502,-0.03336 0.02502,-0.106321 v -2.086806 q 0,-0.07296 -0.02502,-0.106321 -0.01251,-0.01876 -0.02502,-0.02293 -0.01042,-0.0063 -0.07922,-0.02919 -0.08339,-0.0271 -0.08339,-0.112575 0,-0.05212 0.03961,-0.07922 0.04169,-0.02919 0.116744,-0.02919 h 0.0542 0.929786 0.0542 q 0.07505,0 0.114659,0.02919 0.0417,0.0271 0.0417,0.07922 0,0.08547 -0.08339,0.112575 -0.0688,0.02293 -0.0813,0.02919 -0.01042,0.0042 -0.02293,0.02293 -0.02502,0.03336 -0.02502,0.106321 v 2.086806 q 0,0.116745 0.06046,0.137592 l 0.06463,0.02085 q 0.07922,0.02502 0.07922,0.112575 0,0.108406 -0.148015,0.108406 z m 0.82555,-2.020095 0.629585,1.64693 q 0.02502,0.06671 0.05212,0.102151 0.0271,0.03336 0.07088,0.05212 0.04378,0.02085 0.05629,0.03127 0.02919,0.02919 0.02919,0.07713 0,0.11049 -0.156354,0.11049 h -1.048615 q -0.07505,0 -0.116745,-0.03127 -0.03961,-0.03127 -0.03961,-0.08964 0,-0.06671 0.07713,-0.104236 0.04795,-0.02293 0.06463,-0.03752 0.01668,-0.01668 0.01876,-0.04378 0,-0.01459 -0.01668,-0.06671 l -0.266844,-0.796364 q -0.03752,-0.11049 -0.03752,-0.187625 0,-0.07297 0.06046,-0.158439 l 0.498248,-0.702551 q 0.07088,-0.09798 0.07088,-0.204303 0,-0.05837 -0.03127,-0.108405 -0.03127,-0.05003 -0.08339,-0.07088 l -0.07505,-0.03127 q -0.07088,-0.02919 -0.07088,-0.09798 0,-0.05629 0.04378,-0.09173 0.02919,-0.02293 0.0959,-0.02293 h 0.742161 q 0.07296,0 0.112575,0.03336 0.04169,0.03127 0.04169,0.08964 0,0.08756 -0.0959,0.125084 l -0.11049,0.04378 q -0.0688,0.02502 -0.175117,0.112575 -0.07922,0.06671 -0.195964,0.223065 z"
         id="path42856" />
      <path
         d="m -60.002386,41.51719 v 2.845645 h -0.927701 -0.0542 q -0.07505,0 -0.116744,-0.0271 -0.03961,-0.02919 -0.03961,-0.0813 0,-0.08547 0.08339,-0.112575 0.0688,-0.02293 0.07922,-0.0271 0.01251,-0.0063 0.02502,-0.02502 0.02502,-0.03336 0.02502,-0.106321 v -2.086806 q 0,-0.07296 -0.02502,-0.106321 -0.01251,-0.01876 -0.02502,-0.02293 -0.01042,-0.0063 -0.07922,-0.02919 -0.08339,-0.0271 -0.08339,-0.112575 0,-0.05212 0.03961,-0.07922 0.04169,-0.02919 0.116744,-0.02919 h 0.0542 z m 0.18554,0 h 0.840143 v 0.737991 q 0,0.06463 -0.02502,0.09381 -0.02502,0.02919 -0.07922,0.02919 -0.04586,0 -0.06671,-0.01876 -0.02085,-0.01876 -0.03961,-0.07713 -0.07922,-0.241828 -0.233489,-0.368996 -0.152184,-0.127168 -0.396097,-0.152185 z m -0.01042,1.517677 v -0.241828 q 0.120913,-0.05837 0.179286,-0.127168 0.05837,-0.0688 0.08547,-0.183455 0.01668,-0.07922 0.04378,-0.108406 0.0271,-0.03127 0.07714,-0.03127 0.06671,0 0.09173,0.05212 0.01459,0.0271 0.01459,0.122998 v 0.794279 q 0,0.09798 -0.02293,0.135507 -0.02085,0.03752 -0.07922,0.03752 -0.04795,0 -0.07505,-0.02919 -0.0271,-0.02919 -0.04378,-0.09798 -0.03544,-0.143846 -0.102151,-0.22098 -0.06463,-0.07714 -0.168862,-0.102152 z m 0.01251,1.327968 v -0.22515 q 0.135507,-0.02085 0.223065,-0.05837 0.08964,-0.03753 0.179286,-0.11466 0.08964,-0.07713 0.141761,-0.158439 0.0542,-0.08339 0.102152,-0.218896 0.02293,-0.06671 0.04795,-0.08964 0.02502,-0.02502 0.0688,-0.02502 0.05837,0 0.0813,0.03544 0.02293,0.03336 0.02293,0.118829 v 0.735907 z"
         id="path42858" />
      <path
         d="m -57.673752,41.460902 v 0.239743 q -0.129253,0.03544 -0.198048,0.110491 -0.06671,0.07297 -0.06671,0.18137 0,0.104236 0.05629,0.183456 0.05629,0.07713 0.183456,0.148015 0.08756,0.04795 0.396097,0.183456 0.187625,0.0813 0.289776,0.148015 0.104236,0.06463 0.195964,0.162608 0.245997,0.258506 0.245997,0.614993 0,0.268929 -0.133422,0.491994 -0.133422,0.223065 -0.366911,0.350234 -0.125084,0.06671 -0.275184,0.104236 -0.148015,0.03961 -0.277267,0.03961 v -0.237658 q 0.18137,-0.04378 0.26059,-0.120914 0.0813,-0.07922 0.0813,-0.212641 0,-0.139677 -0.125083,-0.245998 -0.08339,-0.0688 -0.316878,-0.170947 -0.256421,-0.112575 -0.352318,-0.160523 -0.09381,-0.04795 -0.181371,-0.112575 -0.391927,-0.279353 -0.391927,-0.744246 0,-0.237658 0.09798,-0.437791 0.09798,-0.202218 0.273099,-0.325217 0.243912,-0.170947 0.604569,-0.18971 z m 0.164693,0.239743 v -0.229319 q 0.125084,0.0083 0.216811,0.03336 0.09173,0.02293 0.26059,0.09381 0.04169,0.01668 0.0688,0.01668 0.03961,0 0.05837,-0.0271 l 0.04586,-0.06046 q 0.03336,-0.04586 0.0813,-0.04586 0.05629,0 0.08131,0.04169 0.0271,0.03961 0.0271,0.127168 v 0.687958 q 0,0.06046 -0.03544,0.100067 -0.03336,0.03753 -0.08756,0.03753 -0.04169,0 -0.07713,-0.0271 -0.01876,-0.01668 -0.03127,-0.03961 -0.01042,-0.02502 -0.02085,-0.0813 -0.02293,-0.102152 -0.07922,-0.210557 -0.05629,-0.108406 -0.131337,-0.193879 -0.1501,-0.168863 -0.377335,-0.223066 z m -0.273098,2.480819 v 0.237658 q -0.170947,0 -0.377335,-0.09798 -0.07713,-0.03544 -0.106321,-0.04586 -0.02919,-0.01042 -0.05629,-0.01042 -0.0417,0 -0.06254,0.01459 -0.02085,0.01251 -0.06671,0.06671 -0.03753,0.04586 -0.0813,0.04586 -0.116744,0 -0.116744,-0.179286 v -0.758839 q 0,-0.05837 0.03336,-0.09798 0.03336,-0.04169 0.08339,-0.04378 0.04586,-0.0021 0.07088,0.0271 0.0271,0.0271 0.04586,0.09798 0.04795,0.179286 0.137592,0.335641 0.09173,0.156354 0.212642,0.264759 0.122998,0.112575 0.283522,0.143846 z"
         id="path42860" />
    </g>
    <g
       aria-label="Hjalti F. Hjaltason"
       transform="matrix(0,-1.7496561,0.57154089,0,0,0)"
       id="text39484"
       style="font-size:4.40124px;line-height:1.25;font-family:'Freestyle Script';-inkscape-font-specification:'Freestyle Script, Normal';fill:#ff0000;stroke-width:0.110031">
      <path
         d="m -39.7057,94.018884 q -0.442703,0.09026 -0.917641,0.279376 -0.01719,0.03439 -0.03438,0.07092 -0.296568,0.569497 -0.399722,1.07882 -0.02149,0.120346 -0.09671,0.120346 -0.05588,0 -0.09886,-0.05588 -0.03438,-0.04298 -0.03438,-0.09241 0,-0.06017 0.05373,-0.249289 0.05373,-0.191264 0.11175,-0.33525 0.02149,-0.05373 0.13539,-0.313761 0.02794,-0.06232 0.05588,-0.131091 -0.04513,0.01719 -0.124645,0.05158 -0.03438,0.01504 -0.06232,0.01504 -0.06662,0 -0.06662,-0.101005 0,-0.06662 0.05588,-0.101005 0.04298,-0.02794 0.152582,-0.06662 0.116048,-0.04298 0.182668,-0.07092 0.04298,-0.07522 0.163328,-0.309462 0.02149,-0.04298 0.143986,-0.244991 0.350294,-0.588838 0.455597,-0.838126 0.09671,-0.22565 0.120346,-0.255737 0.04298,-0.05588 0.103154,-0.05588 0.101005,0 0.101005,0.09886 0,0.22565 -0.614626,1.218508 -0.101005,0.163327 -0.148284,0.283673 l 0.107452,-0.03009 q 0.438405,-0.126794 0.797295,-0.221352 0.24714,-0.455597 0.60603,-1.01005 0.06232,-0.09886 0.07307,-0.122495 0.05158,-0.09241 0.109601,-0.09241 0.04943,0 0.08166,0.04083 0.02579,0.03438 0.02579,0.07522 0,0.07737 -0.08381,0.221352 -0.01934,0.03438 -0.176221,0.275077 -0.275078,0.425511 -0.345996,0.569496 0.06232,-0.0064 0.09456,-0.0064 0.169774,0 0.169774,0.08381 0,0.05158 -0.05373,0.101005 -0.04083,0.03868 -0.09026,0.03868 h -0.08381 q -0.05158,0 -0.154731,0.01934 -0.455597,0.812338 -0.595284,1.424816 -0.03439,0.137538 -0.107453,0.137538 -0.05588,0 -0.105303,-0.07092 -0.03224,-0.04943 -0.03224,-0.105303 0,-0.206308 0.526515,-1.323811 z"
         id="path42771" />
      <path
         d="m -39.327468,95.359887 0.04298,-0.09026 0.131091,-0.277226 q 0.268631,-0.578093 0.350294,-0.724228 0.126794,-0.225649 0.227799,-0.225649 0.03224,0 0.06017,0.02579 0.02579,0.02794 0.02579,0.05373 0,0.03868 -0.128943,0.223501 -0.07952,0.116048 -0.238544,0.427659 -0.126793,0.255737 -0.184818,0.401871 0.163328,-0.109601 0.268631,-0.214904 0.122495,-0.120346 0.238544,-0.303015 0.05373,-0.08166 0.09671,-0.08166 0.02364,0 0.04083,0.01934 0.01934,0.02149 0.01934,0.04728 0,0.07307 -0.09026,0.199861 -0.221351,0.320207 -0.69629,0.590987 -0.04513,0.07307 -0.143986,0.296568 -0.174072,0.395423 -0.356741,0.638265 -0.101005,0.131092 -0.242842,0.214905 -0.09456,0.05588 -0.197712,0.05588 -0.120346,0 -0.20201,-0.09456 -0.05158,-0.06017 -0.05158,-0.148284 0,-0.22565 0.229948,-0.496429 0.279375,-0.330953 0.801593,-0.53941 z m -0.120347,0.227799 q -0.20201,0.07737 -0.434106,0.300866 -0.27078,0.255736 -0.27078,0.447001 0,0.04513 0.02149,0.06662 0.02149,0.02364 0.06232,0.02364 0.09026,0 0.191265,-0.101005 0.167625,-0.163327 0.429808,-0.737121 z m 1.263638,-2.320967 q 0.09671,0 0.09671,0.09886 0,0.09026 -0.09456,0.199861 -0.09026,0.105303 -0.174073,0.105303 -0.04083,0 -0.06877,-0.03009 -0.02364,-0.02794 -0.02364,-0.07092 0,-0.101005 0.1139,-0.217053 0.08381,-0.08596 0.150433,-0.08596 z"
         id="path42773" />
      <path
         d="m -37.696345,94.985954 q -0.07092,0.124644 -0.139688,0.210606 -0.135389,0.167625 -0.26863,0.167625 -0.116048,0 -0.180519,-0.109601 -0.04083,-0.07092 -0.04083,-0.167625 0,-0.238544 0.150433,-0.526516 0.167625,-0.320207 0.40402,-0.492131 0.154731,-0.11175 0.298717,-0.11175 0.09026,0 0.150433,0.05588 0.05158,0.04943 0.05158,0.11175 0,0.04728 -0.03653,0.131092 0.03224,0.04513 0.03224,0.07952 0,0.04513 -0.06017,0.148284 -0.06232,0.105303 -0.124644,0.279375 -0.06662,0.184818 -0.06662,0.296568 0,0.09026 0.05373,0.148284 0.01504,0.01504 0.08811,0.04943 0.05373,0.02579 0.05373,0.09026 0,0.04083 -0.03009,0.06662 -0.03224,0.02794 -0.07522,0.02794 -0.116048,0 -0.199861,-0.103154 -0.06877,-0.08381 -0.06877,-0.210607 0,-0.04298 0.0086,-0.141836 z m 0.268631,-0.707035 q -0.02579,-0.04728 -0.05588,-0.06877 -0.03009,-0.02364 -0.06447,-0.02364 -0.163327,0 -0.354592,0.285822 -0.210606,0.31591 -0.210606,0.535112 0,0.05373 0.01934,0.08166 0.02149,0.02794 0.06232,0.02794 0.103154,0 0.240692,-0.219202 0.07737,-0.120347 0.191265,-0.354592 0.07522,-0.152582 0.109601,-0.20201 0.01719,-0.02579 0.06232,-0.06232 z"
         id="path42775" />
      <path
         d="m -36.836728,94.627063 q -0.06447,0.167626 -0.09671,0.27078 -0.03224,0.103154 -0.03224,0.143986 0,0.05373 0.05158,0.05373 0.07737,0 0.199861,-0.146135 0.05802,-0.07092 0.171923,-0.255736 0.04513,-0.07307 0.09456,-0.07307 0.05587,0 0.05587,0.05373 0,0.09241 -0.212755,0.373934 -0.221351,0.294419 -0.410467,0.294419 -0.08166,0 -0.133241,-0.06877 -0.03653,-0.04943 -0.03653,-0.120346 0,-0.120346 0.07307,-0.333102 0.07307,-0.212755 0.217053,-0.517919 0.369636,-0.775804 0.754314,-1.278681 0.307314,-0.40402 0.509324,-0.40402 0.06447,0 0.105303,0.04943 0.04298,0.04943 0.04298,0.1139 0,0.300866 -0.53726,1.001454 -0.240693,0.311611 -0.575944,0.623222 -0.08811,0.08166 -0.240693,0.219202 z m 0.152583,-0.341697 q 0.447,-0.38253 0.799443,-0.96707 0.182669,-0.303015 0.182669,-0.401871 0,-0.04728 -0.04083,-0.04728 -0.118197,0 -0.429808,0.470641 -0.257885,0.386828 -0.511472,0.945579 z"
         id="path42777" />
      <path
         d="m -35.457042,93.956562 q -0.139688,0.217053 -0.257885,0.485684 -0.169774,0.382529 -0.169774,0.571645 0,0.05373 0.02149,0.08166 0.02364,0.02794 0.06877,0.02794 0.107453,0 0.260035,-0.20201 0.09671,-0.124644 0.171923,-0.249289 0.04083,-0.07092 0.08811,-0.07092 0.02794,0 0.04728,0.01934 0.01719,0.01934 0.01719,0.03868 0,0.07952 -0.208457,0.354592 -0.249289,0.330953 -0.455597,0.330953 -0.109601,0 -0.182669,-0.101005 -0.04513,-0.06447 -0.04513,-0.182669 0,-0.260034 0.150433,-0.60603 0.03653,-0.08596 0.20201,-0.414765 -0.05802,0.01504 -0.08811,0.01504 -0.04513,0 -0.07952,-0.02149 -0.04728,-0.03009 -0.04728,-0.07522 0,-0.05373 0.06232,-0.08596 0.01719,-0.0086 0.159029,-0.02794 0.05158,-0.0086 0.150433,-0.04083 0.07522,-0.13539 0.244991,-0.367486 0.09456,-0.128943 0.131092,-0.167626 0.05158,-0.05373 0.09026,-0.05373 0.02794,0 0.05588,0.03009 0.02579,0.02794 0.02579,0.05588 0,0.05588 -0.120346,0.221351 -0.07952,0.107453 -0.118197,0.174073 0.238543,-0.06447 0.341697,-0.06447 0.118198,0 0.118198,0.09886 0,0.04943 -0.04083,0.07307 -0.02149,0.01289 -0.11175,0.02149 -0.03653,-0.0021 -0.324506,0.08166 -0.07951,0.02364 -0.15688,0.04943 z"
         id="path42779" />
      <path
         d="m -34.606021,94.053269 q 0.03653,0 0.06017,0.02794 0.01719,0.02364 0.01719,0.04728 0,0.03868 -0.06232,0.128942 -0.2235,0.345996 -0.318058,0.569496 -0.101005,0.229948 -0.178371,0.47279 -0.03439,0.107452 -0.107452,0.107452 -0.04298,0 -0.06877,-0.03439 -0.02364,-0.02794 -0.02364,-0.06017 0,-0.06447 0.137539,-0.429808 0.107452,-0.287972 0.348145,-0.636117 0.07737,-0.113899 0.116048,-0.152582 0.03868,-0.04083 0.07952,-0.04083 z m 0.408318,-0.797295 q 0.09671,0 0.09671,0.09886 0,0.09026 -0.09456,0.199861 -0.09026,0.105303 -0.174072,0.105303 -0.04083,0 -0.06662,-0.03009 -0.02579,-0.02794 -0.02579,-0.06877 0,-0.103154 0.113899,-0.219202 0.08381,-0.08596 0.150433,-0.08596 z"
         id="path42781" />
      <path
         d="m -31.893929,92.894935 q -0.11175,0.124644 -0.296568,0.412616 -0.186967,0.29227 -0.26863,0.451299 0.464193,-0.09241 0.642563,-0.09241 0.08596,0 0.131092,0.01719 0.05158,0.01719 0.05158,0.07951 0,0.133241 -0.150433,0.133241 -0.0086,0 -0.03439,0 -0.06447,-0.0021 -0.09456,-0.0021 -0.212756,0 -0.707036,0.139688 -0.31376,0.539409 -0.552304,1.289425 -0.03224,0.1139 -0.101005,0.1139 -0.06017,0 -0.101005,-0.06662 -0.03224,-0.04943 -0.03224,-0.09886 0,-0.05588 0.118197,-0.378231 0.195563,-0.530814 0.558751,-1.138993 0.229948,-0.380381 0.505025,-0.805891 -0.07307,-0.01075 -0.07307,-0.08166 0,-0.105303 0.204159,-0.161178 0.283674,-0.07951 0.552304,-0.122495 0.305164,-0.04943 0.464193,-0.04943 0.251438,0 0.251438,0.126793 0,0.06447 -0.05802,0.105303 -0.02364,0.01719 -0.05373,0.01719 -0.02579,0 -0.07307,-0.0064 -0.07307,-0.01075 -0.126794,-0.01075 -0.116048,0 -0.391126,0.04513 -0.197712,0.03009 -0.365337,0.08381 z"
         id="path42783" />
      <path
         d="m -31.55438,95.183666 q 0.04728,0 0.07951,0.04298 0.02149,0.02794 0.02149,0.07092 0,0.101005 -0.05588,0.212755 -0.05802,0.118197 -0.152582,0.118197 -0.09886,0 -0.09886,-0.11175 0,-0.11175 0.06877,-0.227798 0.06232,-0.105303 0.137539,-0.105303 z"
         id="path42785" />
      <path
         d="m -28.124508,94.018884 q -0.442703,0.09026 -0.917641,0.279376 -0.01719,0.03439 -0.03439,0.07092 -0.296568,0.569497 -0.399722,1.07882 -0.02149,0.120346 -0.09671,0.120346 -0.05587,0 -0.09886,-0.05588 -0.03438,-0.04298 -0.03438,-0.09241 0,-0.06017 0.05373,-0.249289 0.05373,-0.191264 0.11175,-0.33525 0.02149,-0.05373 0.13539,-0.313761 0.02794,-0.06232 0.05588,-0.131091 -0.04513,0.01719 -0.124645,0.05158 -0.03438,0.01504 -0.06232,0.01504 -0.06662,0 -0.06662,-0.101005 0,-0.06662 0.05588,-0.101005 0.04298,-0.02794 0.152582,-0.06662 0.116048,-0.04298 0.182668,-0.07092 0.04298,-0.07522 0.163328,-0.309462 0.02149,-0.04298 0.143986,-0.244991 0.350294,-0.588838 0.455597,-0.838126 0.09671,-0.22565 0.120346,-0.255737 0.04298,-0.05588 0.103154,-0.05588 0.101005,0 0.101005,0.09886 0,0.22565 -0.614626,1.218508 -0.101005,0.163327 -0.148284,0.283673 l 0.107452,-0.03009 q 0.438405,-0.126794 0.797295,-0.221352 0.24714,-0.455597 0.60603,-1.01005 0.06232,-0.09886 0.07307,-0.122495 0.05158,-0.09241 0.109601,-0.09241 0.04943,0 0.08166,0.04083 0.02579,0.03438 0.02579,0.07522 0,0.07737 -0.08381,0.221352 -0.01934,0.03438 -0.176221,0.275077 -0.275078,0.425511 -0.345996,0.569496 0.06232,-0.0064 0.09456,-0.0064 0.169774,0 0.169774,0.08381 0,0.05158 -0.05373,0.101005 -0.04083,0.03868 -0.09026,0.03868 h -0.08381 q -0.05158,0 -0.154732,0.01934 -0.455597,0.812338 -0.595284,1.424816 -0.03439,0.137538 -0.107453,0.137538 -0.05588,0 -0.105303,-0.07092 -0.03224,-0.04943 -0.03224,-0.105303 0,-0.206308 0.526515,-1.323811 z"
         id="path42787" />
      <path
         d="m -27.746275,95.359887 0.04298,-0.09026 0.131092,-0.277226 q 0.26863,-0.578093 0.350294,-0.724228 0.126794,-0.225649 0.227799,-0.225649 0.03224,0 0.06017,0.02579 0.02579,0.02794 0.02579,0.05373 0,0.03868 -0.128942,0.223501 -0.07952,0.116048 -0.238544,0.427659 -0.126794,0.255737 -0.184818,0.401871 0.163327,-0.109601 0.268631,-0.214904 0.122495,-0.120346 0.238543,-0.303015 0.05373,-0.08166 0.09671,-0.08166 0.02364,0 0.04083,0.01934 0.01934,0.02149 0.01934,0.04728 0,0.07307 -0.09026,0.199861 -0.221352,0.320207 -0.69629,0.590987 -0.04513,0.07307 -0.143986,0.296568 -0.174073,0.395423 -0.356741,0.638265 -0.101005,0.131092 -0.242842,0.214905 -0.09456,0.05588 -0.197712,0.05588 -0.120346,0 -0.20201,-0.09456 -0.05158,-0.06017 -0.05158,-0.148284 0,-0.22565 0.229948,-0.496429 0.279375,-0.330953 0.801593,-0.53941 z m -0.120347,0.227799 q -0.20201,0.07737 -0.434107,0.300866 -0.270779,0.255736 -0.270779,0.447001 0,0.04513 0.02149,0.06662 0.02149,0.02364 0.06232,0.02364 0.09026,0 0.191265,-0.101005 0.167625,-0.163327 0.429808,-0.737121 z m 1.263637,-2.320967 q 0.09671,0 0.09671,0.09886 0,0.09026 -0.09456,0.199861 -0.09026,0.105303 -0.174072,0.105303 -0.04083,0 -0.06877,-0.03009 -0.02364,-0.02794 -0.02364,-0.07092 0,-0.101005 0.113899,-0.217053 0.08381,-0.08596 0.150433,-0.08596 z"
         id="path42789" />
      <path
         d="m -26.115153,94.985954 q -0.07092,0.124644 -0.139688,0.210606 -0.135389,0.167625 -0.26863,0.167625 -0.116048,0 -0.180519,-0.109601 -0.04083,-0.07092 -0.04083,-0.167625 0,-0.238544 0.150433,-0.526516 0.167625,-0.320207 0.40402,-0.492131 0.154731,-0.11175 0.298717,-0.11175 0.09026,0 0.150433,0.05588 0.05158,0.04943 0.05158,0.11175 0,0.04728 -0.03653,0.131092 0.03224,0.04513 0.03224,0.07952 0,0.04513 -0.06017,0.148284 -0.06232,0.105303 -0.124644,0.279375 -0.06662,0.184818 -0.06662,0.296568 0,0.09026 0.05373,0.148284 0.01504,0.01504 0.08811,0.04943 0.05373,0.02579 0.05373,0.09026 0,0.04083 -0.03009,0.06662 -0.03224,0.02794 -0.07522,0.02794 -0.116048,0 -0.199861,-0.103154 -0.06877,-0.08381 -0.06877,-0.210607 0,-0.04298 0.0086,-0.141836 z m 0.268631,-0.707035 q -0.02579,-0.04728 -0.05588,-0.06877 -0.03009,-0.02364 -0.06447,-0.02364 -0.163327,0 -0.354592,0.285822 -0.210606,0.31591 -0.210606,0.535112 0,0.05373 0.01934,0.08166 0.02149,0.02794 0.06232,0.02794 0.103154,0 0.240692,-0.219202 0.07737,-0.120347 0.191265,-0.354592 0.07522,-0.152582 0.109601,-0.20201 0.01719,-0.02579 0.06232,-0.06232 z"
         id="path42791" />
      <path
         d="m -25.255535,94.627063 q -0.06447,0.167626 -0.09671,0.27078 -0.03224,0.103154 -0.03224,0.143986 0,0.05373 0.05158,0.05373 0.07737,0 0.199861,-0.146135 0.05803,-0.07092 0.171924,-0.255736 0.04513,-0.07307 0.09456,-0.07307 0.05588,0 0.05588,0.05373 0,0.09241 -0.212755,0.373934 -0.221352,0.294419 -0.410468,0.294419 -0.08166,0 -0.13324,-0.06877 -0.03653,-0.04943 -0.03653,-0.120346 0,-0.120346 0.07307,-0.333102 0.07307,-0.212755 0.217054,-0.517919 0.369635,-0.775804 0.754314,-1.278681 0.307313,-0.40402 0.509323,-0.40402 0.06447,0 0.105303,0.04943 0.04298,0.04943 0.04298,0.1139 0,0.300866 -0.537261,1.001454 -0.240693,0.311611 -0.575943,0.623222 -0.08811,0.08166 -0.240693,0.219202 z m 0.152582,-0.341697 q 0.447001,-0.38253 0.799444,-0.96707 0.182669,-0.303015 0.182669,-0.401871 0,-0.04728 -0.04083,-0.04728 -0.118198,0 -0.429809,0.470641 -0.257885,0.386828 -0.511472,0.945579 z"
         id="path42793" />
      <path
         d="m -23.875849,93.956562 q -0.139688,0.217053 -0.257885,0.485684 -0.169774,0.382529 -0.169774,0.571645 0,0.05373 0.02149,0.08166 0.02364,0.02794 0.06877,0.02794 0.107453,0 0.260035,-0.20201 0.09671,-0.124644 0.171923,-0.249289 0.04083,-0.07092 0.08811,-0.07092 0.02794,0 0.04728,0.01934 0.01719,0.01934 0.01719,0.03868 0,0.07952 -0.208457,0.354592 -0.249289,0.330953 -0.455597,0.330953 -0.109601,0 -0.182669,-0.101005 -0.04513,-0.06447 -0.04513,-0.182669 0,-0.260034 0.150433,-0.60603 0.03653,-0.08596 0.20201,-0.414765 -0.05802,0.01504 -0.08811,0.01504 -0.04513,0 -0.07951,-0.02149 -0.04728,-0.03009 -0.04728,-0.07522 0,-0.05373 0.06232,-0.08596 0.01719,-0.0086 0.159029,-0.02794 0.05158,-0.0086 0.150433,-0.04083 0.07522,-0.13539 0.244991,-0.367486 0.09456,-0.128943 0.131092,-0.167626 0.05158,-0.05373 0.09026,-0.05373 0.02794,0 0.05588,0.03009 0.02579,0.02794 0.02579,0.05588 0,0.05588 -0.120346,0.221351 -0.07952,0.107453 -0.118197,0.174073 0.238543,-0.06447 0.341697,-0.06447 0.118198,0 0.118198,0.09886 0,0.04943 -0.04083,0.07307 -0.02149,0.01289 -0.11175,0.02149 -0.03653,-0.0021 -0.324506,0.08166 -0.07951,0.02364 -0.15688,0.04943 z"
         id="path42795" />
      <path
         d="m -22.95606,94.985954 q -0.07092,0.124644 -0.139688,0.210606 -0.135389,0.167625 -0.26863,0.167625 -0.116048,0 -0.18052,-0.109601 -0.04083,-0.07092 -0.04083,-0.167625 0,-0.238544 0.150433,-0.526516 0.167625,-0.320207 0.40402,-0.492131 0.154731,-0.11175 0.298717,-0.11175 0.09026,0 0.150433,0.05588 0.05158,0.04943 0.05158,0.11175 0,0.04728 -0.03653,0.131092 0.03224,0.04513 0.03224,0.07952 0,0.04513 -0.06017,0.148284 -0.06232,0.105303 -0.124644,0.279375 -0.06662,0.184818 -0.06662,0.296568 0,0.09026 0.05373,0.148284 0.01504,0.01504 0.08811,0.04943 0.05373,0.02579 0.05373,0.09026 0,0.04083 -0.03009,0.06662 -0.03224,0.02794 -0.07522,0.02794 -0.116048,0 -0.199861,-0.103154 -0.06877,-0.08381 -0.06877,-0.210607 0,-0.04298 0.0086,-0.141836 z m 0.268631,-0.707035 q -0.02579,-0.04728 -0.05588,-0.06877 -0.03009,-0.02364 -0.06447,-0.02364 -0.163327,0 -0.354592,0.285822 -0.210606,0.31591 -0.210606,0.535112 0,0.05373 0.01934,0.08166 0.02149,0.02794 0.06232,0.02794 0.103155,0 0.240693,-0.219202 0.07737,-0.120347 0.191265,-0.354592 0.07522,-0.152582 0.109601,-0.20201 0.01719,-0.02579 0.06232,-0.06232 z"
         id="path42797" />
      <path
         d="m -21.462474,93.913581 q 0.133241,0 0.199861,0.04728 0.06662,0.04728 0.06662,0.143986 0,0.126794 -0.09456,0.244991 -0.09026,0.11175 -0.270779,0.18052 -0.09886,0.03653 -0.165477,0.03653 -0.09026,0 -0.09026,-0.07951 0,-0.05373 0.05158,-0.08166 0.0129,-0.0064 0.146135,-0.03653 0.07952,-0.01719 0.146135,-0.07522 0.05802,-0.04943 0.05802,-0.107452 0,-0.04513 -0.02579,-0.06662 -0.02579,-0.02149 -0.07737,-0.02149 -0.124644,0 -0.275077,0.101005 -0.174073,0.113899 -0.174073,0.270779 0,0.111751 0.1139,0.279376 0.126793,0.182669 0.126793,0.309462 0,0.189116 -0.167625,0.296568 -0.103154,0.06662 -0.234246,0.06662 -0.206308,0 -0.31376,-0.148284 -0.07522,-0.105303 -0.07522,-0.249289 0,-0.167625 0.08596,-0.281524 0.05588,-0.07522 0.116048,-0.07522 0.05373,0 0.05373,0.04298 0,0.01719 -0.01934,0.05158 -0.04943,0.09241 -0.04943,0.217054 0,0.105303 0.07522,0.17837 0.06662,0.06447 0.152582,0.06447 0.08381,0 0.131091,-0.05588 0.03868,-0.04728 0.03868,-0.120346 0,-0.09026 -0.103154,-0.234246 -0.141837,-0.197712 -0.141837,-0.35889 0,-0.214904 0.234246,-0.380381 0.227798,-0.159029 0.481385,-0.159029 z"
         id="path42799" />
      <path
         d="m -20.499704,93.954413 q 0.176222,0 0.176222,0.214904 0,0.285823 -0.264333,0.724228 -0.287971,0.474938 -0.556602,0.474938 -0.124644,0 -0.182668,-0.116048 -0.03009,-0.05802 -0.03009,-0.139688 0,-0.275077 0.189116,-0.597434 0.176221,-0.298717 0.414765,-0.464193 0.139688,-0.09671 0.253587,-0.09671 z m -0.2235,0.812338 q -0.05373,-0.04298 -0.05373,-0.06662 0,-0.01719 0.06877,-0.09456 0.193414,-0.217053 0.193414,-0.350294 0,-0.01719 -0.01075,-0.03439 -0.01719,-0.03224 -0.05373,-0.03224 -0.06877,0 -0.20201,0.13324 -0.171924,0.171924 -0.262184,0.354592 -0.105303,0.208458 -0.105303,0.345996 0,0.03653 0.01934,0.06447 0.02794,0.03868 0.07092,0.03868 0.103154,0 0.221351,-0.154731 0.05158,-0.06447 0.08381,-0.13324 0.03224,-0.06877 0.03009,-0.07092 z"
         id="path42801" />
      <path
         d="m -19.910866,94.603424 q 0.02794,-0.02579 0.05373,-0.05158 0.449149,-0.438405 0.601732,-0.438405 0.08381,0 0.08381,0.09241 0,0.06447 -0.07522,0.152582 -0.410468,0.479237 -0.410468,0.844574 0,0.118197 0.06447,0.225649 0.03009,0.04943 0.03009,0.07737 0,0.02579 -0.02579,0.04943 -0.02794,0.03009 -0.06662,0.03009 -0.08811,0 -0.148284,-0.111751 -0.05803,-0.105303 -0.05803,-0.255736 0,-0.290121 0.219203,-0.642564 -0.29227,0.186967 -0.543708,0.661906 -0.06447,0.113899 -0.137539,0.113899 -0.03653,0 -0.06017,-0.02579 -0.03009,-0.03009 -0.03009,-0.07737 0,-0.116048 0.264333,-0.608179 0.141836,-0.266482 0.2235,-0.386828 0.08166,-0.118197 0.139688,-0.118197 0.02794,0 0.05373,0.02579 0.03009,0.03009 0.03009,0.06877 0,0.04728 -0.06232,0.135389 -0.09026,0.131092 -0.146135,0.238544 z"
         id="path42803" />
    </g>
    <rect
       style="fill:none;fill-opacity:1;stroke:#000000;stroke-width:0.248218"
       id="rect42468"
       width="54.751781"
       height="84.751785"
       x="3.5785897"
       y="10.92542"
       ry="0" />
  </g>
</svg>
